<mxfile host="app.diagrams.net" modified="2023-06-02T22:14:49.063Z" agent="Mozilla/5.0 (Windows NT 10.0; Win64; x64) AppleWebKit/537.36 (KHTML, like Gecko) Chrome/113.0.0.0 Safari/537.36 Edg/113.0.1774.57" etag="RxbyeLbcALrimri_xuwr" version="21.3.6" type="github">
  <diagram name="Page-1" id="avuCrzYc_2zifGQklvcb">
    <mxGraphModel dx="2530" dy="1826" grid="1" gridSize="10" guides="1" tooltips="1" connect="1" arrows="1" fold="1" page="1" pageScale="1" pageWidth="850" pageHeight="1100" math="0" shadow="0">
      <root>
        <mxCell id="0" />
        <mxCell id="1" parent="0" />
        <mxCell id="20oGBJxCJiwP2vIUOQRp-1" value="Stakeholder Analysis" style="rounded=0;whiteSpace=wrap;html=1;" parent="1" vertex="1">
          <mxGeometry x="240" y="120" width="390" height="80" as="geometry" />
        </mxCell>
        <mxCell id="20oGBJxCJiwP2vIUOQRp-3" value="How to do&lt;br&gt;&lt;br&gt;&lt;font face=&quot;Verdana&quot; style=&quot;font-size: 18px;&quot;&gt;Stakeholder Analysis&lt;/font&gt; &lt;br&gt;&lt;br&gt;step by step" style="text;html=1;strokeColor=none;fillColor=none;align=center;verticalAlign=middle;whiteSpace=wrap;rounded=0;" parent="1" vertex="1">
          <mxGeometry x="300" y="30" width="240" height="80" as="geometry" />
        </mxCell>
        <mxCell id="20oGBJxCJiwP2vIUOQRp-5" style="edgeStyle=orthogonalEdgeStyle;rounded=0;orthogonalLoop=1;jettySize=auto;html=1;" parent="1" source="20oGBJxCJiwP2vIUOQRp-4" target="20oGBJxCJiwP2vIUOQRp-1" edge="1">
          <mxGeometry relative="1" as="geometry" />
        </mxCell>
        <mxCell id="20oGBJxCJiwP2vIUOQRp-12" style="edgeStyle=orthogonalEdgeStyle;rounded=0;orthogonalLoop=1;jettySize=auto;html=1;entryX=0.5;entryY=0;entryDx=0;entryDy=0;" parent="1" source="20oGBJxCJiwP2vIUOQRp-4" target="20oGBJxCJiwP2vIUOQRp-7" edge="1">
          <mxGeometry relative="1" as="geometry" />
        </mxCell>
        <mxCell id="20oGBJxCJiwP2vIUOQRp-4" value="Business Analysis Approch" style="rounded=0;whiteSpace=wrap;html=1;" parent="1" vertex="1">
          <mxGeometry x="-230" y="120" width="390" height="80" as="geometry" />
        </mxCell>
        <mxCell id="20oGBJxCJiwP2vIUOQRp-13" style="edgeStyle=orthogonalEdgeStyle;rounded=0;orthogonalLoop=1;jettySize=auto;html=1;" parent="1" source="20oGBJxCJiwP2vIUOQRp-7" edge="1">
          <mxGeometry relative="1" as="geometry">
            <mxPoint x="-35" y="400" as="targetPoint" />
          </mxGeometry>
        </mxCell>
        <mxCell id="20oGBJxCJiwP2vIUOQRp-7" value="Select Approach&lt;br&gt;&lt;br&gt;Predictive or Adaptive&amp;nbsp;" style="rounded=1;whiteSpace=wrap;html=1;" parent="1" vertex="1">
          <mxGeometry x="-112.5" y="270" width="155" height="60" as="geometry" />
        </mxCell>
        <mxCell id="20oGBJxCJiwP2vIUOQRp-8" value="Predictive Approach :&amp;nbsp; &amp;nbsp;&lt;br&gt;&lt;br&gt;- It means focus on the minimizing the upfront uncertainty.&amp;nbsp;&lt;br&gt;&lt;br&gt;- Solution and techniques are defined before the implementation starts .&lt;br&gt;&lt;br&gt;- Take maximum control on the project and minimum risk&lt;br&gt;&lt;br&gt;- Requirement must be defined&amp;nbsp; ahead of implementation.&lt;br&gt;" style="text;html=1;strokeColor=none;fillColor=none;align=left;verticalAlign=middle;whiteSpace=wrap;rounded=0;" parent="1" vertex="1">
          <mxGeometry x="-350" y="-280" width="320" height="160" as="geometry" />
        </mxCell>
        <mxCell id="20oGBJxCJiwP2vIUOQRp-9" value="&lt;font style=&quot;font-size: 36px;&quot;&gt;Terms / Definitions&amp;nbsp;&lt;/font&gt;" style="text;html=1;strokeColor=none;fillColor=#FF1F17;align=center;verticalAlign=middle;whiteSpace=wrap;rounded=0;" parent="1" vertex="1">
          <mxGeometry x="-350" y="-470" width="190" height="170" as="geometry" />
        </mxCell>
        <mxCell id="20oGBJxCJiwP2vIUOQRp-10" value="Adaptive Approach:&amp;nbsp; &amp;nbsp;&lt;br&gt;&lt;br&gt;- It means focus on the rapid deliveries of business value/product/project in short iterations.&lt;br&gt;&lt;br&gt;- When exploring for the best solution or Incremental improvement of an existing solution.&lt;br&gt;&lt;br&gt;- When maybe the requirements keep changing&amp;nbsp;" style="text;html=1;strokeColor=none;fillColor=none;align=left;verticalAlign=middle;whiteSpace=wrap;rounded=0;" parent="1" vertex="1">
          <mxGeometry y="-220" width="320" height="100" as="geometry" />
        </mxCell>
        <mxCell id="20oGBJxCJiwP2vIUOQRp-11" value="How to do&lt;br&gt;&lt;br&gt;&lt;font face=&quot;Verdana&quot;&gt;&lt;span style=&quot;font-size: 18px;&quot;&gt;Approach Selection&lt;/span&gt;&lt;/font&gt;&lt;br&gt;step by step" style="text;html=1;strokeColor=none;fillColor=none;align=center;verticalAlign=middle;whiteSpace=wrap;rounded=0;" parent="1" vertex="1">
          <mxGeometry x="-155" y="30" width="240" height="80" as="geometry" />
        </mxCell>
        <mxCell id="20oGBJxCJiwP2vIUOQRp-14" value="" style="rounded=1;whiteSpace=wrap;html=1;" parent="1" vertex="1">
          <mxGeometry x="-300" y="210" width="60" height="40" as="geometry" />
        </mxCell>
        <mxCell id="20oGBJxCJiwP2vIUOQRp-16" value="" style="rounded=1;whiteSpace=wrap;html=1;" parent="1" vertex="1">
          <mxGeometry x="180" y="210" width="60" height="40" as="geometry" />
        </mxCell>
        <mxCell id="20oGBJxCJiwP2vIUOQRp-17" value="Formal Documentation&amp;nbsp;" style="rounded=1;whiteSpace=wrap;html=1;" parent="1" vertex="1">
          <mxGeometry x="-170" y="400" width="60" height="40" as="geometry" />
        </mxCell>
        <mxCell id="20oGBJxCJiwP2vIUOQRp-19" value="&lt;font style=&quot;font-size: 72px;&quot;&gt;Tylor&#39;s Content&amp;nbsp;&lt;/font&gt;" style="text;html=1;strokeColor=none;fillColor=none;align=center;verticalAlign=middle;whiteSpace=wrap;rounded=0;" parent="1" vertex="1">
          <mxGeometry x="-417.5" y="620" width="555" height="280" as="geometry" />
        </mxCell>
        <mxCell id="xvKbqlWR54QsmGuHGJQW-46" value="" style="group;fillColor=#999999;" parent="1" vertex="1" connectable="0">
          <mxGeometry x="-1682" y="1392" width="1520" height="1385" as="geometry" />
        </mxCell>
        <mxCell id="20oGBJxCJiwP2vIUOQRp-18" value="&lt;font style=&quot;font-size: 24px;&quot;&gt;Discovery Analysis and Business Requirements&lt;/font&gt;" style="rounded=0;whiteSpace=wrap;html=1;" parent="xvKbqlWR54QsmGuHGJQW-46" vertex="1">
          <mxGeometry x="600" width="400" height="80" as="geometry" />
        </mxCell>
        <mxCell id="20oGBJxCJiwP2vIUOQRp-22" value="&lt;font style=&quot;font-size: 18px;&quot;&gt;Planning of Project Launch&amp;nbsp;&lt;/font&gt;" style="rounded=1;whiteSpace=wrap;html=1;" parent="xvKbqlWR54QsmGuHGJQW-46" vertex="1">
          <mxGeometry x="725" y="170" width="150" height="70" as="geometry" />
        </mxCell>
        <mxCell id="xvKbqlWR54QsmGuHGJQW-45" style="edgeStyle=orthogonalEdgeStyle;rounded=0;orthogonalLoop=1;jettySize=auto;html=1;entryX=0.5;entryY=0;entryDx=0;entryDy=0;" parent="xvKbqlWR54QsmGuHGJQW-46" source="20oGBJxCJiwP2vIUOQRp-18" target="20oGBJxCJiwP2vIUOQRp-22" edge="1">
          <mxGeometry relative="1" as="geometry" />
        </mxCell>
        <mxCell id="20oGBJxCJiwP2vIUOQRp-23" value="&lt;div style=&quot;text-align: center;&quot;&gt;&lt;span style=&quot;background-color: initial;&quot;&gt;&lt;font style=&quot;font-size: 18px;&quot;&gt;Discovery Analysis&lt;/font&gt;&lt;font style=&quot;font-size: 14px;&quot;&gt;&amp;nbsp;&lt;/font&gt;&lt;/span&gt;&lt;/div&gt;&lt;font size=&quot;3&quot;&gt;&lt;br&gt;&lt;/font&gt;&lt;ul&gt;&lt;li&gt;&lt;font size=&quot;3&quot;&gt;&amp;nbsp;To define the approaches&lt;/font&gt;&lt;/li&gt;&lt;li&gt;&lt;font size=&quot;3&quot;&gt;Share the Approaches with Stakeholders&lt;/font&gt;&lt;/li&gt;&lt;li&gt;&lt;font size=&quot;3&quot;&gt;Share Guidance and tools to lead the Conceptual baseline of understanding of business vision, need and impacts.&lt;/font&gt;&lt;/li&gt;&lt;/ul&gt;" style="rounded=1;whiteSpace=wrap;html=1;align=left;" parent="xvKbqlWR54QsmGuHGJQW-46" vertex="1">
          <mxGeometry x="510" y="330" width="360" height="170" as="geometry" />
        </mxCell>
        <mxCell id="20oGBJxCJiwP2vIUOQRp-24" style="edgeStyle=orthogonalEdgeStyle;rounded=0;orthogonalLoop=1;jettySize=auto;html=1;" parent="xvKbqlWR54QsmGuHGJQW-46" source="20oGBJxCJiwP2vIUOQRp-22" target="20oGBJxCJiwP2vIUOQRp-23" edge="1">
          <mxGeometry relative="1" as="geometry" />
        </mxCell>
        <mxCell id="20oGBJxCJiwP2vIUOQRp-25" value="DA&amp;nbsp; &amp;nbsp;IV&amp;nbsp; &amp;nbsp;IC&amp;nbsp; IO&amp;nbsp;" style="whiteSpace=wrap;html=1;align=center;rounded=1;" parent="xvKbqlWR54QsmGuHGJQW-46" vertex="1">
          <mxGeometry x="630" y="530" width="120" height="60" as="geometry" />
        </mxCell>
        <mxCell id="20oGBJxCJiwP2vIUOQRp-26" value="" style="edgeStyle=orthogonalEdgeStyle;rounded=0;orthogonalLoop=1;jettySize=auto;html=1;" parent="xvKbqlWR54QsmGuHGJQW-46" source="20oGBJxCJiwP2vIUOQRp-23" target="20oGBJxCJiwP2vIUOQRp-25" edge="1">
          <mxGeometry relative="1" as="geometry" />
        </mxCell>
        <mxCell id="20oGBJxCJiwP2vIUOQRp-27" value="&lt;font style=&quot;font-size: 14px;&quot;&gt;Domain Analysis&amp;nbsp;&lt;br&gt;&lt;font style=&quot;&quot;&gt;3 methos&lt;/font&gt;&amp;nbsp;&lt;/font&gt;" style="whiteSpace=wrap;html=1;align=center;rounded=1;" parent="xvKbqlWR54QsmGuHGJQW-46" vertex="1">
          <mxGeometry x="420" y="670" width="120" height="60" as="geometry" />
        </mxCell>
        <mxCell id="20oGBJxCJiwP2vIUOQRp-28" value="" style="edgeStyle=orthogonalEdgeStyle;rounded=0;orthogonalLoop=1;jettySize=auto;html=1;" parent="xvKbqlWR54QsmGuHGJQW-46" source="20oGBJxCJiwP2vIUOQRp-25" target="20oGBJxCJiwP2vIUOQRp-27" edge="1">
          <mxGeometry relative="1" as="geometry" />
        </mxCell>
        <mxCell id="20oGBJxCJiwP2vIUOQRp-29" value="How to define and understand the domain of the company&amp;nbsp;" style="text;html=1;strokeColor=none;fillColor=none;align=center;verticalAlign=middle;whiteSpace=wrap;rounded=0;" parent="xvKbqlWR54QsmGuHGJQW-46" vertex="1">
          <mxGeometry x="300" y="610" width="140" height="70" as="geometry" />
        </mxCell>
        <mxCell id="20oGBJxCJiwP2vIUOQRp-30" value="SWOT&amp;nbsp;" style="whiteSpace=wrap;html=1;align=center;rounded=1;" parent="xvKbqlWR54QsmGuHGJQW-46" vertex="1">
          <mxGeometry x="270" y="810" width="100" height="30" as="geometry" />
        </mxCell>
        <mxCell id="20oGBJxCJiwP2vIUOQRp-31" value="" style="edgeStyle=orthogonalEdgeStyle;rounded=0;orthogonalLoop=1;jettySize=auto;html=1;" parent="xvKbqlWR54QsmGuHGJQW-46" source="20oGBJxCJiwP2vIUOQRp-27" target="20oGBJxCJiwP2vIUOQRp-30" edge="1">
          <mxGeometry relative="1" as="geometry" />
        </mxCell>
        <mxCell id="20oGBJxCJiwP2vIUOQRp-32" value="Value chain" style="whiteSpace=wrap;html=1;align=center;rounded=1;" parent="xvKbqlWR54QsmGuHGJQW-46" vertex="1">
          <mxGeometry x="390" y="810" width="90" height="30" as="geometry" />
        </mxCell>
        <mxCell id="20oGBJxCJiwP2vIUOQRp-34" style="edgeStyle=orthogonalEdgeStyle;rounded=0;orthogonalLoop=1;jettySize=auto;html=1;entryX=0.417;entryY=-0.017;entryDx=0;entryDy=0;entryPerimeter=0;" parent="xvKbqlWR54QsmGuHGJQW-46" source="20oGBJxCJiwP2vIUOQRp-27" target="20oGBJxCJiwP2vIUOQRp-32" edge="1">
          <mxGeometry relative="1" as="geometry">
            <Array as="points">
              <mxPoint x="470" y="770" />
              <mxPoint x="428" y="770" />
            </Array>
          </mxGeometry>
        </mxCell>
        <mxCell id="20oGBJxCJiwP2vIUOQRp-33" value="Business Model" style="whiteSpace=wrap;html=1;align=center;rounded=1;" parent="xvKbqlWR54QsmGuHGJQW-46" vertex="1">
          <mxGeometry x="500" y="810" width="90" height="30" as="geometry" />
        </mxCell>
        <mxCell id="20oGBJxCJiwP2vIUOQRp-35" style="edgeStyle=orthogonalEdgeStyle;rounded=0;orthogonalLoop=1;jettySize=auto;html=1;" parent="xvKbqlWR54QsmGuHGJQW-46" source="20oGBJxCJiwP2vIUOQRp-27" target="20oGBJxCJiwP2vIUOQRp-33" edge="1">
          <mxGeometry relative="1" as="geometry">
            <Array as="points">
              <mxPoint x="530" y="770" />
              <mxPoint x="545" y="770" />
            </Array>
          </mxGeometry>
        </mxCell>
        <mxCell id="20oGBJxCJiwP2vIUOQRp-36" value="SWOT MATRIX&lt;br&gt;&lt;br&gt;&lt;blockquote style=&quot;margin: 0 0 0 40px; border: none; padding: 0px;&quot;&gt;&lt;div style=&quot;text-align: left;&quot;&gt;&lt;span style=&quot;background-color: initial;&quot;&gt;SO: How to exploit potential&lt;/span&gt;&lt;/div&gt;&lt;div style=&quot;text-align: left;&quot;&gt;&lt;br&gt;&lt;/div&gt;&lt;div style=&quot;text-align: left;&quot;&gt;&lt;span style=&quot;background-color: initial;&quot;&gt;ST: How to use strength to RESISTE threats and turn into Opportunities?&lt;/span&gt;&lt;/div&gt;&lt;div style=&quot;text-align: left;&quot;&gt;&lt;br&gt;&lt;/div&gt;&lt;div style=&quot;text-align: left;&quot;&gt;&lt;span style=&quot;background-color: initial;&quot;&gt;WO: Can we use Opportunity to mitigate weakness? / Or can develop new capabilities?&lt;/span&gt;&lt;/div&gt;&lt;div style=&quot;text-align: left;&quot;&gt;&lt;br&gt;&lt;/div&gt;&lt;div style=&quot;text-align: left;&quot;&gt;&lt;span style=&quot;background-color: initial;&quot;&gt;WT: Can we restructure to avoid threat?&lt;/span&gt;&lt;/div&gt;&lt;/blockquote&gt;" style="whiteSpace=wrap;html=1;rounded=1;" parent="xvKbqlWR54QsmGuHGJQW-46" vertex="1">
          <mxGeometry y="920" width="362.5" height="180" as="geometry" />
        </mxCell>
        <mxCell id="20oGBJxCJiwP2vIUOQRp-37" value="" style="edgeStyle=orthogonalEdgeStyle;rounded=0;orthogonalLoop=1;jettySize=auto;html=1;" parent="xvKbqlWR54QsmGuHGJQW-46" source="20oGBJxCJiwP2vIUOQRp-30" target="20oGBJxCJiwP2vIUOQRp-36" edge="1">
          <mxGeometry relative="1" as="geometry" />
        </mxCell>
        <mxCell id="20oGBJxCJiwP2vIUOQRp-38" value="" style="whiteSpace=wrap;html=1;rounded=1;" parent="xvKbqlWR54QsmGuHGJQW-46" vertex="1">
          <mxGeometry x="121.25" y="1140" width="120" height="60" as="geometry" />
        </mxCell>
        <mxCell id="20oGBJxCJiwP2vIUOQRp-39" value="" style="edgeStyle=orthogonalEdgeStyle;rounded=0;orthogonalLoop=1;jettySize=auto;html=1;" parent="xvKbqlWR54QsmGuHGJQW-46" source="20oGBJxCJiwP2vIUOQRp-36" target="20oGBJxCJiwP2vIUOQRp-38" edge="1">
          <mxGeometry relative="1" as="geometry" />
        </mxCell>
        <mxCell id="xvKbqlWR54QsmGuHGJQW-1" value="Initiative visioning" style="whiteSpace=wrap;html=1;align=center;rounded=1;" parent="xvKbqlWR54QsmGuHGJQW-46" vertex="1">
          <mxGeometry x="695" y="680" width="120" height="60" as="geometry" />
        </mxCell>
        <mxCell id="xvKbqlWR54QsmGuHGJQW-2" value="" style="edgeStyle=orthogonalEdgeStyle;rounded=0;orthogonalLoop=1;jettySize=auto;html=1;" parent="xvKbqlWR54QsmGuHGJQW-46" source="20oGBJxCJiwP2vIUOQRp-25" target="xvKbqlWR54QsmGuHGJQW-1" edge="1">
          <mxGeometry relative="1" as="geometry" />
        </mxCell>
        <mxCell id="xvKbqlWR54QsmGuHGJQW-3" value="&lt;font style=&quot;background-color: rgb(240, 0, 24); font-size: 36px;&quot;&gt;1&lt;/font&gt;" style="text;html=1;strokeColor=none;fillColor=none;align=center;verticalAlign=middle;whiteSpace=wrap;rounded=0;" parent="xvKbqlWR54QsmGuHGJQW-46" vertex="1">
          <mxGeometry x="470" y="590" width="60" height="30" as="geometry" />
        </mxCell>
        <mxCell id="xvKbqlWR54QsmGuHGJQW-11" value="&lt;div style=&quot;&quot;&gt;&lt;span style=&quot;background-color: rgb(240, 0, 24);&quot;&gt;- Identify the &lt;b style=&quot;&quot;&gt;current state &lt;/b&gt;and beneficiaries,&amp;nbsp;Summarize the purpose and&amp;nbsp;project&#39;s future state&lt;/span&gt;&lt;/div&gt;&lt;div style=&quot;&quot;&gt;&lt;br&gt;&lt;/div&gt;&lt;div style=&quot;&quot;&gt;&lt;span style=&quot;background-color: initial;&quot;&gt;- Focus on the need, pain, gain of&amp;nbsp; Customer and stakeholder&lt;/span&gt;&lt;/div&gt;&lt;div style=&quot;&quot;&gt;&lt;br&gt;&lt;/div&gt;&lt;div style=&quot;&quot;&gt;&lt;span style=&quot;background-color: initial;&quot;&gt;- Go beyond the functional needs and address the emotional and social needs.&lt;/span&gt;&lt;/div&gt;&lt;div style=&quot;&quot;&gt;&lt;br&gt;&lt;/div&gt;&lt;div style=&quot;&quot;&gt;&lt;span style=&quot;background-color: initial;&quot;&gt;-Align how customer/stakeholder measures the success.&lt;/span&gt;&lt;/div&gt;&lt;div style=&quot;&quot;&gt;&lt;br&gt;&lt;/div&gt;&lt;div style=&quot;&quot;&gt;&lt;span style=&quot;background-color: initial;&quot;&gt;- Define how the vision will differentiates from the competitor.&lt;/span&gt;&lt;/div&gt;" style="whiteSpace=wrap;html=1;rounded=1;align=center;" parent="xvKbqlWR54QsmGuHGJQW-46" vertex="1">
          <mxGeometry x="600" y="790" width="290" height="310" as="geometry" />
        </mxCell>
        <mxCell id="xvKbqlWR54QsmGuHGJQW-9" value="" style="edgeStyle=orthogonalEdgeStyle;rounded=0;orthogonalLoop=1;jettySize=auto;html=1;exitX=0.5;exitY=1;exitDx=0;exitDy=0;entryX=0.5;entryY=0;entryDx=0;entryDy=0;" parent="xvKbqlWR54QsmGuHGJQW-46" source="xvKbqlWR54QsmGuHGJQW-1" target="xvKbqlWR54QsmGuHGJQW-11" edge="1">
          <mxGeometry relative="1" as="geometry">
            <mxPoint x="895.0588235294117" y="750" as="sourcePoint" />
            <mxPoint x="850" y="920" as="targetPoint" />
          </mxGeometry>
        </mxCell>
        <mxCell id="xvKbqlWR54QsmGuHGJQW-17" value="&lt;font style=&quot;background-color: rgb(240, 0, 24); font-size: 36px;&quot;&gt;2&lt;/font&gt;" style="text;html=1;strokeColor=none;fillColor=none;align=center;verticalAlign=middle;whiteSpace=wrap;rounded=0;" parent="xvKbqlWR54QsmGuHGJQW-46" vertex="1">
          <mxGeometry x="690" y="640" width="60" height="30" as="geometry" />
        </mxCell>
        <mxCell id="xvKbqlWR54QsmGuHGJQW-18" value="Information capture" style="whiteSpace=wrap;html=1;align=center;rounded=1;" parent="xvKbqlWR54QsmGuHGJQW-46" vertex="1">
          <mxGeometry x="970" y="680" width="120" height="60" as="geometry" />
        </mxCell>
        <mxCell id="xvKbqlWR54QsmGuHGJQW-20" style="edgeStyle=orthogonalEdgeStyle;rounded=0;orthogonalLoop=1;jettySize=auto;html=1;" parent="xvKbqlWR54QsmGuHGJQW-46" source="20oGBJxCJiwP2vIUOQRp-25" target="xvKbqlWR54QsmGuHGJQW-18" edge="1">
          <mxGeometry relative="1" as="geometry" />
        </mxCell>
        <mxCell id="xvKbqlWR54QsmGuHGJQW-21" value="&lt;b&gt;&lt;font style=&quot;font-size: 18px; background-color: rgb(240, 0, 24);&quot;&gt;Key Elements&lt;/font&gt;&lt;/b&gt;" style="text;html=1;strokeColor=none;fillColor=none;align=center;verticalAlign=middle;whiteSpace=wrap;rounded=0;" parent="xvKbqlWR54QsmGuHGJQW-46" vertex="1">
          <mxGeometry x="685" y="790" width="140" height="70" as="geometry" />
        </mxCell>
        <mxCell id="xvKbqlWR54QsmGuHGJQW-22" value="- To support the Initiative,&amp;nbsp;&lt;br&gt;&lt;br&gt;&lt;ul&gt;&lt;li style=&quot;text-align: left;&quot;&gt;Do Elicitation&lt;/li&gt;&lt;li style=&quot;text-align: left;&quot;&gt;gather and review available info./doc&lt;/li&gt;&lt;/ul&gt;&lt;br&gt;which supports the business domain, project or impacted system." style="whiteSpace=wrap;html=1;rounded=1;" parent="xvKbqlWR54QsmGuHGJQW-46" vertex="1">
          <mxGeometry x="902.5" y="820" width="255" height="130" as="geometry" />
        </mxCell>
        <mxCell id="xvKbqlWR54QsmGuHGJQW-23" value="" style="edgeStyle=orthogonalEdgeStyle;rounded=0;orthogonalLoop=1;jettySize=auto;html=1;" parent="xvKbqlWR54QsmGuHGJQW-46" source="xvKbqlWR54QsmGuHGJQW-18" target="xvKbqlWR54QsmGuHGJQW-22" edge="1">
          <mxGeometry relative="1" as="geometry" />
        </mxCell>
        <mxCell id="xvKbqlWR54QsmGuHGJQW-24" value="Methods to do that&lt;br&gt;&lt;br&gt;&lt;ul&gt;&lt;li style=&quot;text-align: left;&quot;&gt;Document analysis&lt;/li&gt;&lt;li style=&quot;text-align: left;&quot;&gt;Current state process documentation&lt;/li&gt;&lt;li style=&quot;text-align: left;&quot;&gt;Interface Analysis&lt;/li&gt;&lt;li style=&quot;text-align: left;&quot;&gt;Interviewing&lt;/li&gt;&lt;li style=&quot;text-align: left;&quot;&gt;Industry Benchmarking&lt;/li&gt;&lt;/ul&gt;" style="whiteSpace=wrap;html=1;rounded=1;" parent="xvKbqlWR54QsmGuHGJQW-46" vertex="1">
          <mxGeometry x="930" y="970" width="200" height="145" as="geometry" />
        </mxCell>
        <mxCell id="xvKbqlWR54QsmGuHGJQW-25" value="" style="edgeStyle=orthogonalEdgeStyle;rounded=0;orthogonalLoop=1;jettySize=auto;html=1;" parent="xvKbqlWR54QsmGuHGJQW-46" source="xvKbqlWR54QsmGuHGJQW-22" target="xvKbqlWR54QsmGuHGJQW-24" edge="1">
          <mxGeometry relative="1" as="geometry" />
        </mxCell>
        <mxCell id="xvKbqlWR54QsmGuHGJQW-26" value="Identify the current state&lt;br&gt;review the purpose and project future state" style="text;html=1;strokeColor=none;fillColor=none;align=center;verticalAlign=middle;whiteSpace=wrap;rounded=0;" parent="xvKbqlWR54QsmGuHGJQW-46" vertex="1">
          <mxGeometry x="755" y="610" width="140" height="70" as="geometry" />
        </mxCell>
        <mxCell id="xvKbqlWR54QsmGuHGJQW-27" value="To support the initiative we need information and Idea of the current state." style="text;html=1;strokeColor=none;fillColor=none;align=center;verticalAlign=middle;whiteSpace=wrap;rounded=0;" parent="xvKbqlWR54QsmGuHGJQW-46" vertex="1">
          <mxGeometry x="1030" y="600" width="140" height="70" as="geometry" />
        </mxCell>
        <mxCell id="xvKbqlWR54QsmGuHGJQW-28" value="&lt;font style=&quot;background-color: rgb(240, 0, 24); font-size: 36px;&quot;&gt;3&lt;/font&gt;" style="text;html=1;strokeColor=none;fillColor=none;align=center;verticalAlign=middle;whiteSpace=wrap;rounded=0;" parent="xvKbqlWR54QsmGuHGJQW-46" vertex="1">
          <mxGeometry x="970" y="640" width="60" height="30" as="geometry" />
        </mxCell>
        <mxCell id="xvKbqlWR54QsmGuHGJQW-29" value="9 key Components&lt;br&gt;&lt;br&gt;&lt;ol&gt;&lt;li style=&quot;text-align: left;&quot;&gt;Key Partnership&lt;/li&gt;&lt;li style=&quot;text-align: left;&quot;&gt;key Activities&lt;/li&gt;&lt;li style=&quot;text-align: left;&quot;&gt;Key resources&lt;/li&gt;&lt;li style=&quot;text-align: left;&quot;&gt;Value Proposition&lt;/li&gt;&lt;li style=&quot;text-align: left;&quot;&gt;Customer Relationship&lt;/li&gt;&lt;li style=&quot;text-align: left;&quot;&gt;Channels&lt;/li&gt;&lt;li style=&quot;text-align: left;&quot;&gt;Customer segments&lt;/li&gt;&lt;li style=&quot;text-align: left;&quot;&gt;Cost Structure&lt;/li&gt;&lt;li style=&quot;text-align: left;&quot;&gt;Revenue Streams&lt;/li&gt;&lt;/ol&gt;" style="whiteSpace=wrap;html=1;rounded=1;" parent="xvKbqlWR54QsmGuHGJQW-46" vertex="1">
          <mxGeometry x="510" y="1100" width="120" height="285" as="geometry" />
        </mxCell>
        <mxCell id="xvKbqlWR54QsmGuHGJQW-31" style="edgeStyle=orthogonalEdgeStyle;rounded=0;orthogonalLoop=1;jettySize=auto;html=1;entryX=0.5;entryY=0;entryDx=0;entryDy=0;" parent="xvKbqlWR54QsmGuHGJQW-46" source="20oGBJxCJiwP2vIUOQRp-33" target="xvKbqlWR54QsmGuHGJQW-29" edge="1">
          <mxGeometry relative="1" as="geometry" />
        </mxCell>
        <mxCell id="xvKbqlWR54QsmGuHGJQW-32" value="Business&#39;s primary activities and&amp;nbsp; Supporting Activities&lt;br&gt;&lt;br&gt;&lt;div style=&quot;text-align: left;&quot;&gt;&lt;span style=&quot;background-color: initial;&quot;&gt;&amp;nbsp; &amp;nbsp; Primary:&lt;/span&gt;&lt;/div&gt;&lt;div style=&quot;text-align: left;&quot;&gt;&lt;ul&gt;&lt;li&gt;&lt;span style=&quot;background-color: initial;&quot;&gt;Inbound Logistics&lt;/span&gt;&lt;/li&gt;&lt;li&gt;&lt;span style=&quot;background-color: initial;&quot;&gt;operations&lt;/span&gt;&lt;/li&gt;&lt;li&gt;&lt;span style=&quot;background-color: initial;&quot;&gt;marketing and sales&lt;/span&gt;&lt;/li&gt;&lt;li&gt;&lt;span style=&quot;background-color: initial;&quot;&gt;Customer service&lt;/span&gt;&lt;/li&gt;&lt;/ul&gt;&lt;div&gt;&lt;br&gt;&lt;/div&gt;&lt;div&gt;&amp;nbsp;Supporting:&lt;br&gt;&lt;br&gt;&lt;/div&gt;&lt;div&gt;&lt;ul&gt;&lt;li&gt;human Resources&lt;/li&gt;&lt;li&gt;Tech Dev /IT&lt;/li&gt;&lt;li&gt;Infrastructure&lt;/li&gt;&lt;li&gt;Procurement&lt;/li&gt;&lt;/ul&gt;&lt;/div&gt;&lt;/div&gt;" style="whiteSpace=wrap;html=1;rounded=1;" parent="xvKbqlWR54QsmGuHGJQW-46" vertex="1">
          <mxGeometry x="375" y="905" width="120" height="425" as="geometry" />
        </mxCell>
        <mxCell id="xvKbqlWR54QsmGuHGJQW-33" value="" style="edgeStyle=orthogonalEdgeStyle;rounded=0;orthogonalLoop=1;jettySize=auto;html=1;" parent="xvKbqlWR54QsmGuHGJQW-46" source="20oGBJxCJiwP2vIUOQRp-32" target="xvKbqlWR54QsmGuHGJQW-32" edge="1">
          <mxGeometry relative="1" as="geometry" />
        </mxCell>
        <mxCell id="xvKbqlWR54QsmGuHGJQW-36" value="Information Organization and Normalizatioin" style="whiteSpace=wrap;html=1;rounded=1;" parent="xvKbqlWR54QsmGuHGJQW-46" vertex="1">
          <mxGeometry x="1200" y="680" width="120" height="60" as="geometry" />
        </mxCell>
        <mxCell id="xvKbqlWR54QsmGuHGJQW-39" style="edgeStyle=orthogonalEdgeStyle;rounded=0;orthogonalLoop=1;jettySize=auto;html=1;exitX=1;exitY=0.5;exitDx=0;exitDy=0;entryX=0.5;entryY=0;entryDx=0;entryDy=0;" parent="xvKbqlWR54QsmGuHGJQW-46" source="20oGBJxCJiwP2vIUOQRp-25" target="xvKbqlWR54QsmGuHGJQW-36" edge="1">
          <mxGeometry relative="1" as="geometry" />
        </mxCell>
        <mxCell id="xvKbqlWR54QsmGuHGJQW-40" value="&lt;font style=&quot;background-color: rgb(240, 0, 24); font-size: 36px;&quot;&gt;4&lt;/font&gt;" style="text;html=1;strokeColor=none;fillColor=none;align=center;verticalAlign=middle;whiteSpace=wrap;rounded=0;" parent="xvKbqlWR54QsmGuHGJQW-46" vertex="1">
          <mxGeometry x="1210" y="640" width="60" height="30" as="geometry" />
        </mxCell>
        <mxCell id="xvKbqlWR54QsmGuHGJQW-41" value="Now identify, asses and organize info to LEVERAGE this model to show CURRENT STATE" style="text;html=1;strokeColor=none;fillColor=none;align=center;verticalAlign=middle;whiteSpace=wrap;rounded=0;" parent="xvKbqlWR54QsmGuHGJQW-46" vertex="1">
          <mxGeometry x="1265" y="610" width="140" height="70" as="geometry" />
        </mxCell>
        <mxCell id="xvKbqlWR54QsmGuHGJQW-43" value="&lt;ul&gt;&lt;li&gt;&lt;font style=&quot;font-size: 14px;&quot;&gt;Scope Models - Org chart, BCD&lt;/font&gt;&lt;/li&gt;&lt;li&gt;&lt;font size=&quot;3&quot;&gt;Process Models - SIPOC, Flowchart, BPMN&lt;/font&gt;&lt;/li&gt;&lt;li&gt;&lt;font size=&quot;3&quot;&gt;Interface Models - UI, Screen Flows, Screen Components to interact with Data&lt;/font&gt;&lt;/li&gt;&lt;li&gt;&lt;font size=&quot;3&quot;&gt;Data Models- Context Diagram, Data Dictionary&amp;nbsp;&amp;nbsp;&lt;/font&gt;&lt;/li&gt;&lt;/ul&gt;" style="whiteSpace=wrap;html=1;rounded=1;align=left;" parent="xvKbqlWR54QsmGuHGJQW-46" vertex="1">
          <mxGeometry x="1170" y="830" width="350" height="210" as="geometry" />
        </mxCell>
        <mxCell id="xvKbqlWR54QsmGuHGJQW-44" value="" style="edgeStyle=orthogonalEdgeStyle;rounded=0;orthogonalLoop=1;jettySize=auto;html=1;" parent="xvKbqlWR54QsmGuHGJQW-46" source="xvKbqlWR54QsmGuHGJQW-36" target="xvKbqlWR54QsmGuHGJQW-43" edge="1">
          <mxGeometry relative="1" as="geometry" />
        </mxCell>
        <mxCell id="feKw_-WsJlsvPGO94x_M-3" value="" style="group;fillColor=#999999;strokeColor=#56517e;" vertex="1" connectable="0" parent="1">
          <mxGeometry x="-140" y="1390" width="300" height="510" as="geometry" />
        </mxCell>
        <mxCell id="xvKbqlWR54QsmGuHGJQW-48" value="&lt;font style=&quot;font-size: 18px;&quot;&gt;Techniques to Clarify the Problem/ Opportunity Statements&lt;/font&gt;" style="rounded=0;whiteSpace=wrap;html=1;" parent="feKw_-WsJlsvPGO94x_M-3" vertex="1">
          <mxGeometry y="120" width="300" height="70" as="geometry" />
        </mxCell>
        <mxCell id="xvKbqlWR54QsmGuHGJQW-55" style="edgeStyle=orthogonalEdgeStyle;rounded=0;orthogonalLoop=1;jettySize=auto;html=1;entryX=0.5;entryY=0;entryDx=0;entryDy=0;" parent="feKw_-WsJlsvPGO94x_M-3" source="xvKbqlWR54QsmGuHGJQW-49" target="xvKbqlWR54QsmGuHGJQW-48" edge="1">
          <mxGeometry relative="1" as="geometry" />
        </mxCell>
        <mxCell id="xvKbqlWR54QsmGuHGJQW-49" value="&lt;font style=&quot;font-size: 36px;&quot;&gt;PROBLEM OR OPPORTUNITY&lt;/font&gt;" style="text;html=1;align=center;verticalAlign=middle;whiteSpace=wrap;rounded=0;imageAspect=0;" parent="feKw_-WsJlsvPGO94x_M-3" vertex="1">
          <mxGeometry x="10" width="280" height="90" as="geometry" />
        </mxCell>
        <mxCell id="xvKbqlWR54QsmGuHGJQW-56" value="&lt;font style=&quot;font-size: 18px;&quot;&gt;Methods to do :&lt;br&gt;- FIVE WHYS&lt;br&gt;- Fishbone Diagram&lt;/font&gt;" style="whiteSpace=wrap;html=1;fillColor=#000000;rounded=0;" parent="feKw_-WsJlsvPGO94x_M-3" vertex="1">
          <mxGeometry x="35.5" y="240" width="229" height="80" as="geometry" />
        </mxCell>
        <mxCell id="xvKbqlWR54QsmGuHGJQW-57" value="" style="edgeStyle=orthogonalEdgeStyle;rounded=0;orthogonalLoop=1;jettySize=auto;html=1;" parent="feKw_-WsJlsvPGO94x_M-3" source="xvKbqlWR54QsmGuHGJQW-48" target="xvKbqlWR54QsmGuHGJQW-56" edge="1">
          <mxGeometry relative="1" as="geometry" />
        </mxCell>
        <mxCell id="feKw_-WsJlsvPGO94x_M-1" value="&lt;ul&gt;&lt;li&gt;Spend Time Understanding the True Business Requirements = &lt;font color=&quot;#ffffff&quot;&gt;&lt;font style=&quot;background-color: rgb(255, 31, 23);&quot;&gt;Needs &amp;amp; Wants&lt;/font&gt;&amp;nbsp;&lt;/font&gt;&lt;/li&gt;&lt;li&gt;&lt;font color=&quot;#ffffff&quot;&gt;Gather some data real evidence&amp;nbsp;that problem is worth&amp;nbsp;solving.&lt;/font&gt;&lt;/li&gt;&lt;li&gt;&lt;font color=&quot;#ffffff&quot;&gt;Understand the root-cause of problem before attempting&amp;nbsp;to&amp;nbsp;solve.&lt;/font&gt;&lt;/li&gt;&lt;li&gt;&lt;font color=&quot;#ffffff&quot;&gt;By addressing&amp;nbsp;each&amp;nbsp;root cause,&amp;nbsp;you can ensure the most complete scope to address business requirement.&lt;/font&gt;&lt;/li&gt;&lt;/ul&gt;" style="whiteSpace=wrap;html=1;fillColor=#000000;rounded=0;align=left;" vertex="1" parent="feKw_-WsJlsvPGO94x_M-3">
          <mxGeometry x="2.25" y="370" width="295.5" height="140" as="geometry" />
        </mxCell>
        <mxCell id="feKw_-WsJlsvPGO94x_M-2" value="" style="edgeStyle=orthogonalEdgeStyle;rounded=0;orthogonalLoop=1;jettySize=auto;html=1;" edge="1" parent="feKw_-WsJlsvPGO94x_M-3" source="xvKbqlWR54QsmGuHGJQW-56" target="feKw_-WsJlsvPGO94x_M-1">
          <mxGeometry relative="1" as="geometry" />
        </mxCell>
        <mxCell id="feKw_-WsJlsvPGO94x_M-12" value="&lt;font style=&quot;font-size: 72px; background-color: rgb(0, 0, 204);&quot;&gt;1&lt;br&gt;Overview &lt;br&gt;&amp;amp; &lt;br&gt;HOW TO THINK/ START&amp;nbsp;&lt;/font&gt;" style="text;html=1;strokeColor=none;fillColor=none;align=center;verticalAlign=middle;whiteSpace=wrap;rounded=0;" vertex="1" parent="1">
          <mxGeometry x="-1580" y="1010" width="1350" height="330" as="geometry" />
        </mxCell>
        <mxCell id="feKw_-WsJlsvPGO94x_M-13" value="&lt;span style=&quot;font-size: 72px; background-color: rgb(0, 0, 204);&quot;&gt;2&lt;br&gt;Spend Time In Ensuring&lt;br&gt;&lt;/span&gt;" style="text;html=1;strokeColor=none;fillColor=none;align=center;verticalAlign=middle;whiteSpace=wrap;rounded=0;" vertex="1" parent="1">
          <mxGeometry x="-17.5" y="1120" width="60" height="90" as="geometry" />
        </mxCell>
        <mxCell id="feKw_-WsJlsvPGO94x_M-14" value="Analysis :&lt;br&gt;need of analysis&amp;nbsp;&lt;br&gt;models for that&amp;nbsp;" style="text;html=1;strokeColor=none;fillColor=none;align=center;verticalAlign=middle;whiteSpace=wrap;rounded=0;" vertex="1" parent="1">
          <mxGeometry x="540" y="1160" width="160" height="80" as="geometry" />
        </mxCell>
        <mxCell id="feKw_-WsJlsvPGO94x_M-15" value="&lt;span style=&quot;font-size: 72px; background-color: rgb(0, 0, 204);&quot;&gt;3&lt;/span&gt;" style="text;html=1;strokeColor=none;fillColor=none;align=center;verticalAlign=middle;whiteSpace=wrap;rounded=0;" vertex="1" parent="1">
          <mxGeometry x="590" y="1245" width="60" height="90" as="geometry" />
        </mxCell>
        <mxCell id="feKw_-WsJlsvPGO94x_M-21" value="" style="edgeStyle=orthogonalEdgeStyle;rounded=0;orthogonalLoop=1;jettySize=auto;html=1;fontFamily=Helvetica;fontSize=12;fontColor=default;" edge="1" parent="1" source="feKw_-WsJlsvPGO94x_M-18" target="feKw_-WsJlsvPGO94x_M-20">
          <mxGeometry relative="1" as="geometry" />
        </mxCell>
        <mxCell id="feKw_-WsJlsvPGO94x_M-18" value="Analysis:&amp;nbsp;&lt;br&gt;&lt;ul&gt;&lt;li style=&quot;text-align: left;&quot;&gt;What must change&amp;nbsp;&lt;/li&gt;&lt;li style=&quot;text-align: left;&quot;&gt;What should stay same&lt;/li&gt;&lt;li style=&quot;text-align: left;&quot;&gt;What is missing&lt;/li&gt;&lt;li style=&quot;text-align: left;&quot;&gt;What is unnecessary&lt;/li&gt;&lt;li style=&quot;text-align: left;&quot;&gt;Identify Risk, Constraints, assumption that impact the initiative&lt;/li&gt;&lt;/ul&gt;" style="rounded=0;whiteSpace=wrap;html=1;strokeColor=default;fontFamily=Helvetica;fontSize=12;fontColor=default;fillColor=default;" vertex="1" parent="1">
          <mxGeometry x="530" y="1390" width="240" height="160" as="geometry" />
        </mxCell>
        <mxCell id="feKw_-WsJlsvPGO94x_M-19" value="&lt;span style=&quot;background-color: rgb(255, 0, 0);&quot;&gt;TO&lt;br&gt;&amp;nbsp;MEET&lt;br&gt;&amp;nbsp;BUSIENSS &lt;br&gt;NEEDS ?&lt;/span&gt;" style="text;html=1;strokeColor=none;fillColor=none;align=center;verticalAlign=middle;whiteSpace=wrap;rounded=0;fontSize=12;fontFamily=Helvetica;fontColor=default;" vertex="1" parent="1">
          <mxGeometry x="710" y="1450" width="55" height="40" as="geometry" />
        </mxCell>
        <mxCell id="feKw_-WsJlsvPGO94x_M-31" style="edgeStyle=orthogonalEdgeStyle;rounded=0;orthogonalLoop=1;jettySize=auto;html=1;entryX=0.5;entryY=0;entryDx=0;entryDy=0;fontFamily=Helvetica;fontSize=12;fontColor=default;" edge="1" parent="1" source="feKw_-WsJlsvPGO94x_M-20" target="feKw_-WsJlsvPGO94x_M-22">
          <mxGeometry relative="1" as="geometry" />
        </mxCell>
        <mxCell id="feKw_-WsJlsvPGO94x_M-20" value="&lt;font style=&quot;font-size: 24px;&quot;&gt;Models are Techniques&lt;br&gt;which BUISNESS ANALYST uses to&lt;br&gt;DO BUSINESS ANALYSIS&amp;nbsp;&lt;/font&gt;" style="whiteSpace=wrap;html=1;rounded=0;fillColor=#d80073;fontColor=#ffffff;strokeColor=#A50040;" vertex="1" parent="1">
          <mxGeometry x="518.75" y="1610" width="262.5" height="200" as="geometry" />
        </mxCell>
        <mxCell id="feKw_-WsJlsvPGO94x_M-24" value="" style="edgeStyle=orthogonalEdgeStyle;rounded=0;orthogonalLoop=1;jettySize=auto;html=1;fontFamily=Helvetica;fontSize=12;fontColor=default;" edge="1" parent="1" source="feKw_-WsJlsvPGO94x_M-22" target="feKw_-WsJlsvPGO94x_M-23">
          <mxGeometry relative="1" as="geometry" />
        </mxCell>
        <mxCell id="feKw_-WsJlsvPGO94x_M-26" value="" style="edgeStyle=orthogonalEdgeStyle;rounded=0;orthogonalLoop=1;jettySize=auto;html=1;fontFamily=Helvetica;fontSize=12;fontColor=default;" edge="1" parent="1" source="feKw_-WsJlsvPGO94x_M-22" target="feKw_-WsJlsvPGO94x_M-25">
          <mxGeometry relative="1" as="geometry" />
        </mxCell>
        <mxCell id="feKw_-WsJlsvPGO94x_M-41" style="edgeStyle=orthogonalEdgeStyle;rounded=0;orthogonalLoop=1;jettySize=auto;html=1;exitX=0;exitY=0.5;exitDx=0;exitDy=0;fontFamily=Helvetica;fontSize=12;fontColor=default;" edge="1" parent="1" source="feKw_-WsJlsvPGO94x_M-22" target="feKw_-WsJlsvPGO94x_M-27">
          <mxGeometry relative="1" as="geometry" />
        </mxCell>
        <mxCell id="feKw_-WsJlsvPGO94x_M-42" style="edgeStyle=orthogonalEdgeStyle;rounded=0;orthogonalLoop=1;jettySize=auto;html=1;exitX=0;exitY=0.5;exitDx=0;exitDy=0;fontFamily=Helvetica;fontSize=12;fontColor=default;" edge="1" parent="1" source="feKw_-WsJlsvPGO94x_M-22" target="feKw_-WsJlsvPGO94x_M-30">
          <mxGeometry relative="1" as="geometry" />
        </mxCell>
        <mxCell id="feKw_-WsJlsvPGO94x_M-43" style="edgeStyle=orthogonalEdgeStyle;rounded=0;orthogonalLoop=1;jettySize=auto;html=1;exitX=1;exitY=0.5;exitDx=0;exitDy=0;entryX=0.5;entryY=0;entryDx=0;entryDy=0;fontFamily=Helvetica;fontSize=12;fontColor=default;" edge="1" parent="1" source="feKw_-WsJlsvPGO94x_M-22" target="feKw_-WsJlsvPGO94x_M-29">
          <mxGeometry relative="1" as="geometry" />
        </mxCell>
        <mxCell id="feKw_-WsJlsvPGO94x_M-44" style="edgeStyle=orthogonalEdgeStyle;rounded=0;orthogonalLoop=1;jettySize=auto;html=1;exitX=1;exitY=0.5;exitDx=0;exitDy=0;fontFamily=Helvetica;fontSize=12;fontColor=default;" edge="1" parent="1" source="feKw_-WsJlsvPGO94x_M-22" target="feKw_-WsJlsvPGO94x_M-28">
          <mxGeometry relative="1" as="geometry" />
        </mxCell>
        <mxCell id="feKw_-WsJlsvPGO94x_M-22" value="6 Models" style="rounded=1;whiteSpace=wrap;html=1;strokeColor=default;fontFamily=Helvetica;fontSize=12;fontColor=default;fillColor=default;" vertex="1" parent="1">
          <mxGeometry x="590" y="1960" width="120" height="60" as="geometry" />
        </mxCell>
        <mxCell id="feKw_-WsJlsvPGO94x_M-33" value="" style="edgeStyle=orthogonalEdgeStyle;rounded=0;orthogonalLoop=1;jettySize=auto;html=1;fontFamily=Helvetica;fontSize=12;fontColor=default;" edge="1" parent="1" source="feKw_-WsJlsvPGO94x_M-23" target="feKw_-WsJlsvPGO94x_M-32">
          <mxGeometry relative="1" as="geometry" />
        </mxCell>
        <mxCell id="feKw_-WsJlsvPGO94x_M-23" value="Domain&amp;nbsp;" style="whiteSpace=wrap;html=1;rounded=1;" vertex="1" parent="1">
          <mxGeometry y="2040" width="120" height="60" as="geometry" />
        </mxCell>
        <mxCell id="feKw_-WsJlsvPGO94x_M-25" value="Interface" style="whiteSpace=wrap;html=1;rounded=1;" vertex="1" parent="1">
          <mxGeometry x="1200" y="2040" width="120" height="60" as="geometry" />
        </mxCell>
        <mxCell id="feKw_-WsJlsvPGO94x_M-38" value="" style="edgeStyle=orthogonalEdgeStyle;rounded=0;orthogonalLoop=1;jettySize=auto;html=1;fontFamily=Helvetica;fontSize=12;fontColor=default;" edge="1" parent="1" source="feKw_-WsJlsvPGO94x_M-27" target="feKw_-WsJlsvPGO94x_M-37">
          <mxGeometry relative="1" as="geometry" />
        </mxCell>
        <mxCell id="feKw_-WsJlsvPGO94x_M-27" value="Scope" style="whiteSpace=wrap;html=1;rounded=1;" vertex="1" parent="1">
          <mxGeometry x="240" y="2040" width="120" height="60" as="geometry" />
        </mxCell>
        <mxCell id="feKw_-WsJlsvPGO94x_M-28" value="Data&amp;nbsp;" style="whiteSpace=wrap;html=1;rounded=1;" vertex="1" parent="1">
          <mxGeometry x="960" y="2040" width="120" height="60" as="geometry" />
        </mxCell>
        <mxCell id="feKw_-WsJlsvPGO94x_M-29" value="Rules &amp;amp; Logic" style="whiteSpace=wrap;html=1;rounded=1;" vertex="1" parent="1">
          <mxGeometry x="720" y="2040" width="120" height="60" as="geometry" />
        </mxCell>
        <mxCell id="feKw_-WsJlsvPGO94x_M-46" value="" style="edgeStyle=orthogonalEdgeStyle;rounded=0;orthogonalLoop=1;jettySize=auto;html=1;fontFamily=Helvetica;fontSize=12;fontColor=default;" edge="1" parent="1" source="feKw_-WsJlsvPGO94x_M-30" target="feKw_-WsJlsvPGO94x_M-45">
          <mxGeometry relative="1" as="geometry" />
        </mxCell>
        <mxCell id="feKw_-WsJlsvPGO94x_M-30" value="Process" style="whiteSpace=wrap;html=1;rounded=1;" vertex="1" parent="1">
          <mxGeometry x="480" y="2040" width="120" height="60" as="geometry" />
        </mxCell>
        <mxCell id="feKw_-WsJlsvPGO94x_M-36" value="" style="edgeStyle=orthogonalEdgeStyle;rounded=0;orthogonalLoop=1;jettySize=auto;html=1;fontFamily=Helvetica;fontSize=12;fontColor=default;" edge="1" parent="1" source="feKw_-WsJlsvPGO94x_M-32" target="feKw_-WsJlsvPGO94x_M-35">
          <mxGeometry relative="1" as="geometry" />
        </mxCell>
        <mxCell id="feKw_-WsJlsvPGO94x_M-32" value="&lt;ul&gt;&lt;li&gt;It sets the boundaries of the business domain which needs to be analyzed.&lt;br&gt;&lt;/li&gt;&lt;li&gt;The Problem needs to be addressed and the opportunity to be realized.&amp;nbsp;&lt;br&gt;&lt;/li&gt;&lt;/ul&gt;" style="whiteSpace=wrap;html=1;rounded=1;align=left;" vertex="1" parent="1">
          <mxGeometry x="-62.5" y="2150" width="245" height="90" as="geometry" />
        </mxCell>
        <mxCell id="feKw_-WsJlsvPGO94x_M-35" value="&lt;ul&gt;&lt;li&gt;Org Chart&lt;/li&gt;&lt;li&gt;Stakeholder Mapping&lt;/li&gt;&lt;li&gt;Value Chain Model&lt;/li&gt;&lt;li&gt;Business Model Canvas&lt;/li&gt;&lt;li&gt;Capability Mapping&lt;/li&gt;&lt;li&gt;SWOT Analysis Table&lt;/li&gt;&lt;li&gt;Root Cause Analysis Models&lt;/li&gt;&lt;/ul&gt;" style="whiteSpace=wrap;html=1;align=left;rounded=1;" vertex="1" parent="1">
          <mxGeometry x="-43.75" y="2270" width="207.5" height="130" as="geometry" />
        </mxCell>
        <mxCell id="feKw_-WsJlsvPGO94x_M-40" value="" style="edgeStyle=orthogonalEdgeStyle;rounded=0;orthogonalLoop=1;jettySize=auto;html=1;fontFamily=Helvetica;fontSize=12;fontColor=default;" edge="1" parent="1" source="feKw_-WsJlsvPGO94x_M-37" target="feKw_-WsJlsvPGO94x_M-39">
          <mxGeometry relative="1" as="geometry" />
        </mxCell>
        <mxCell id="feKw_-WsJlsvPGO94x_M-37" value="&lt;div style=&quot;text-align: left;&quot;&gt;&lt;br&gt;&lt;/div&gt;&lt;ul&gt;&lt;li style=&quot;text-align: left;&quot;&gt;Helps to avoid scope creep,&lt;/li&gt;&lt;li style=&quot;text-align: left;&quot;&gt;what is in projects scope and what not&lt;/li&gt;&lt;li style=&quot;text-align: left;&quot;&gt;Identify and prioritize the specific needs/requirement that project aims to address.&lt;br&gt;&lt;/li&gt;&lt;li style=&quot;text-align: left;&quot;&gt;Strategy and Scope definition and ensuring clarity, vision for the initiative and delivery team&lt;/li&gt;&lt;/ul&gt;" style="whiteSpace=wrap;html=1;rounded=1;" vertex="1" parent="1">
          <mxGeometry x="190" y="2150" width="250" height="140" as="geometry" />
        </mxCell>
        <mxCell id="feKw_-WsJlsvPGO94x_M-39" value="&lt;ul&gt;&lt;li&gt;User Story&lt;/li&gt;&lt;li&gt;BCD&lt;/li&gt;&lt;li&gt;Decomposition Model&lt;/li&gt;&lt;li&gt;Feature Model&lt;/li&gt;&lt;li&gt;Use Case Diagram&lt;/li&gt;&lt;/ul&gt;" style="whiteSpace=wrap;html=1;rounded=1;align=left;" vertex="1" parent="1">
          <mxGeometry x="217.5" y="2320" width="195" height="90" as="geometry" />
        </mxCell>
        <mxCell id="feKw_-WsJlsvPGO94x_M-48" value="" style="edgeStyle=orthogonalEdgeStyle;rounded=0;orthogonalLoop=1;jettySize=auto;html=1;fontFamily=Helvetica;fontSize=12;fontColor=default;" edge="1" parent="1" source="feKw_-WsJlsvPGO94x_M-45" target="feKw_-WsJlsvPGO94x_M-47">
          <mxGeometry relative="1" as="geometry" />
        </mxCell>
        <mxCell id="feKw_-WsJlsvPGO94x_M-45" value="&lt;ul&gt;&lt;li&gt;Dynamic understanding of the activities, tasks and steps that stakeholders and/or users perform in achieving the goal.&amp;nbsp;&lt;/li&gt;&lt;li&gt;Active in all phases of business analysis &lt;i&gt;[ Strategy, Scope, Specification]&lt;br&gt;&lt;br&gt;&lt;/i&gt;&lt;/li&gt;&lt;li&gt;Can be Use in &lt;br&gt;AS IS - Current State&amp;nbsp; &lt;br&gt;&amp;amp; &lt;br&gt;TO BE - Future State&lt;br&gt;&lt;/li&gt;&lt;/ul&gt;" style="whiteSpace=wrap;html=1;rounded=1;align=left;" vertex="1" parent="1">
          <mxGeometry x="460" y="2160" width="190" height="250" as="geometry" />
        </mxCell>
        <mxCell id="feKw_-WsJlsvPGO94x_M-47" value="&lt;ul&gt;&lt;li&gt;User Stories&lt;/li&gt;&lt;li&gt;SIPOC Models&lt;/li&gt;&lt;li&gt;Process Maps&amp;nbsp;&lt;/li&gt;&lt;li&gt;Flow Charts&lt;/li&gt;&lt;li&gt;Use Case Specification&lt;/li&gt;&lt;/ul&gt;" style="whiteSpace=wrap;html=1;align=left;rounded=1;" vertex="1" parent="1">
          <mxGeometry x="465" y="2430" width="180" height="110" as="geometry" />
        </mxCell>
      </root>
    </mxGraphModel>
  </diagram>
</mxfile>
